<svg width="456" height="456" viewBox="0 0 456 456" fill="none" xmlns="http://www.w3.org/2000/svg">
<g clip-path="url(#clip0_1001_13)">
<path d="M203.535 86.2224C164.229 88.5065 128.402 106.881 103.027 137.747C82.6663 162.528 71 194.87 71 226.545C71 233.417 71.3842 239.987 72.1323 245.889C75.7919 275.077 88.2063 302.143 107.92 323.913C124.176 341.883 144.597 355.264 167.343 362.844C188.33 369.838 210.268 371.698 232.145 368.363C237.321 367.574 239.464 367.15 244.681 365.856C260.856 361.854 275.899 355.103 289.87 345.582C299.717 338.871 309.118 330.402 317.287 320.881C319.329 318.476 321.007 316.374 324.08 312.331L324.93 311.199L338.941 311.118C354.126 311.037 354.409 311.017 360.232 309.764C372.869 307.015 380.673 299.677 383.484 287.893C384.737 282.617 384.697 283.547 384.697 256.198C384.697 229.88 384.697 230.042 383.746 225.069C381.219 211.708 372.707 203.481 358.594 200.732C354.166 199.883 351.962 199.701 345.169 199.701C338.274 199.701 336.434 199.863 331.602 200.813C320.582 203.016 313.324 208.251 309.199 217.024C306.672 222.381 305.6 228 305.398 237.096C305.034 253.772 307.723 263.636 314.436 270.347C318.298 274.228 323.494 276.795 330.045 278.109C333.563 278.817 335.403 279.019 339.892 279.16C349.435 279.484 357.543 277.685 362.678 274.107C363.406 273.582 364.033 273.177 364.073 273.177C364.255 273.177 364.175 277.786 363.972 279.827C363.042 288.903 358.918 293.249 349.9 294.624C349.01 294.745 344.603 294.927 340.013 295.008C331.925 295.149 331.683 295.149 330.409 295.634C328.67 296.281 326.951 297.919 325.314 300.445C318.439 311.057 313.688 317.02 305.762 324.944C300.586 330.099 296.765 333.434 291.487 337.416C281.762 344.753 271.612 350.433 260.35 354.901C248.057 359.752 236.249 362.541 222.339 363.855C217.789 364.3 205.395 364.36 201.008 363.976C182.71 362.38 166.898 357.933 151.168 349.989C128.179 338.366 109.072 320.436 95.6267 297.838C93.4228 294.159 89.8238 287.145 88.1861 283.385C82.1608 269.559 78.6225 255.794 77.1466 240.532C76.7422 236.348 76.4995 225.777 76.7017 221.228C77.6318 199.883 83.9806 178.194 94.7572 159.577C112.611 128.711 141.2 106.315 174.946 96.7132C186.268 93.4992 196.276 92.0237 208.691 91.7407C227.454 91.296 245.995 94.9344 263.686 102.474C267.205 103.97 274.14 107.447 277.739 109.508C289.122 116.017 301.011 125.558 309.745 135.18C318.985 145.367 325.657 155.15 332.006 167.804L333.037 169.886H336.07C337.748 169.886 339.103 169.846 339.103 169.785C339.103 169.482 333.745 159.052 332.309 156.545C318.844 133.118 298.564 113.733 274.706 101.443C258.45 93.0748 241.425 88.1831 222.642 86.5054C218.335 86.1213 207.963 85.9596 203.535 86.2224ZM351.073 216.499C358.837 217.57 362.314 220.925 363.669 228.647C364.437 233.154 364.579 246.253 363.871 250.538C362.678 257.795 359.18 261.292 351.841 262.545C351.457 262.606 349.597 262.747 347.716 262.868C343.551 263.091 339.629 262.848 336.737 262.161C330.813 260.746 327.942 257.471 326.709 250.7C326.284 248.375 326.264 247.648 326.264 239.522C326.264 232.103 326.325 230.527 326.628 228.809C327.659 222.987 329.62 219.915 333.482 218.116C335.504 217.166 336.555 216.862 339.285 216.478C341.853 216.094 348.323 216.114 351.073 216.499Z" fill="white"/>
<path d="M171.589 167.966C170.699 168.107 167.343 168.653 164.108 169.159C160.893 169.684 156.991 170.29 155.454 170.533L152.664 170.998L152.745 211.324C152.806 248.173 152.846 251.852 153.149 254.055C154.484 263.252 157.011 269.256 161.54 274.026C165.928 278.635 171.609 281.465 179.495 282.981C186.207 284.275 196.418 284.396 204.02 283.284C213.078 281.97 219.366 279.14 224.259 274.208C228.849 269.6 231.579 263.212 232.812 254.298C233.196 251.347 233.257 250.215 233.237 242.15C233.237 232.487 233.055 229.92 232.023 224.988C228.97 210.515 220.216 202.43 205.254 200.186C201.675 199.661 195.306 199.479 191.606 199.782C184.873 200.368 178.888 202.228 174.682 205.098L173.51 205.886V186.764C173.51 176.253 173.449 167.683 173.368 167.683C173.267 167.703 172.479 167.824 171.589 167.966ZM200.3 216.761C206.042 217.994 209.661 221.37 211.299 226.989C212.209 230.163 212.371 231.78 212.512 238.713C212.714 249.204 212.411 253.429 211.198 257.209C209.863 261.373 207.417 264.263 203.919 265.82C200.664 267.275 195.265 267.922 189.887 267.518C179.939 266.79 175.592 263.03 173.793 253.57C173.348 251.306 173.146 234.206 173.51 231.073C174.076 226.12 175.35 223.028 177.756 220.622C180.081 218.298 182.73 217.145 187.36 216.458C190.251 216.034 197.732 216.216 200.3 216.761Z" fill="white"/>
<path d="M264.192 179.71C261.745 180.094 257.196 180.801 254.082 181.266L248.421 182.135V219.733C248.421 259.331 248.401 258.563 249.331 263.03C251.434 273.157 256.974 278.534 267.629 280.858C271.956 281.788 273.614 281.909 283.905 282.011L293.711 282.112L295.39 273.945C296.299 269.478 297.047 265.739 297.047 265.678C297.047 265.597 293.206 265.496 288.515 265.435C282.409 265.355 279.497 265.233 278.345 265.031C272.178 263.919 269.833 261.049 269.145 253.873C269.044 252.762 268.943 244.454 268.943 235.418V219.005H281.984H295.026L295.127 218.54C295.248 218.014 298.463 202.389 298.463 202.288C298.463 202.268 291.851 202.208 283.764 202.187L269.044 202.127L268.984 190.544C268.963 184.197 268.862 178.982 268.781 179.002C268.701 179.023 266.638 179.326 264.192 179.71Z" fill="white"/>
</g>
<defs>
<clipPath id="clip0_1001_13">
<rect width="314" height="284" fill="white" transform="translate(71 86)"/>
</clipPath>
</defs>
</svg>
